<svg xmlns="http://www.w3.org/2000/svg" id="svg6485" width="48" height="48" version="1.1" viewBox="0 0 48 48"><g id="layer1" transform="translate(0 -1004.362)"><path style="line-height:normal;text-indent:0;text-align:start;text-decoration-line:none;text-decoration-style:solid;text-decoration-color:#000;text-transform:none;white-space:normal;isolation:auto;mix-blend-mode:normal;solid-color:#000;solid-opacity:1" id="path6678" fill="#000" fill-opacity="1" fill-rule="nonzero" stroke="none" stroke-dasharray="none" stroke-dashoffset="0" stroke-linecap="round" stroke-linejoin="miter" stroke-miterlimit="4" stroke-opacity="1" stroke-width="1" d="M 24 0 C 10.751087 0 0 10.7511 0 24 C 0 37.2489 10.751087 48 24 48 C 37.248913 48 48 37.2489 48 24 C 48 10.7511 37.248913 0 24 0 z M 24 1 C 36.708473 1 47 11.2916 47 24 C 47 36.7085 36.708473 47 24 47 C 11.291527 47 1 36.7085 1 24 C 1 11.2916 11.291527 1 24 1 z M 26.078125 12.189453 C 25.91932 12.187953 25.752462 12.202922 25.576172 12.232422 C 24.342182 12.563222 23.66144 13.789791 23.84375 15.025391 C 23.24499 15.478891 22.855737 16.142787 22.810547 16.867188 C 21.732637 17.093888 20.825428 17.819006 20.361328 18.816406 C 19.695428 18.451006 18.882473 18.440787 18.158203 18.742188 C 17.705893 18.376287 17.176914 18.097069 16.589844 18.105469 L 16.587891 18.105469 C 15.940631 18.118469 15.319735 18.377191 14.859375 18.837891 C 14.517135 19.180191 14.309136 19.593397 14.222656 20.029297 C 12.435906 20.183297 11.019531 21.6746 11.019531 23.5 C 11.020041 23.7432 11.054869 23.98195 11.105469 24.21875 C 11.048869 24.30275 11.018931 24.401053 11.019531 24.501953 C 11.021531 25.910653 11.392356 27.268537 12.041016 28.523438 C 12.111216 28.685538 12.186041 28.800444 12.244141 28.902344 C 13.133441 30.449044 14.471598 31.812316 16.173828 32.853516 C 16.078228 33.050316 16.019531 33.2683 16.019531 33.5 C 16.019531 33.6763 16.056281 33.8423 16.113281 34 L 12.8125 34 C 12.13634 33.99 12.13634 35.0096 12.8125 35 L 17.519531 35 L 38.511719 35 C 38.545119 35.0001 38.578528 35.000234 38.611328 34.990234 C 39.203348 34.870834 39.115649 33.9991 38.511719 34 L 31.925781 34 C 31.982781 33.8422 32.019531 33.6762 32.019531 33.5 C 32.019531 33.2723 31.963634 33.057481 31.871094 32.863281 C 32.417464 32.528981 32.930931 32.164431 33.400391 31.769531 C 33.948061 31.343531 33.267849 30.537559 32.755859 31.005859 C 32.329369 31.364659 31.857232 31.6933 31.357422 32 L 16.703125 32 C 15.356035 31.1767 14.283823 30.149 13.507812 29 L 17.308594 29 C 17.984754 29.01 17.984754 27.9904 17.308594 28 L 12.919922 28 C 12.757932 27.6736 12.6161 27.3397 12.5 27 L 19.511719 27 C 20.187879 27.01 20.187879 25.9904 19.511719 26 L 12.230469 26 C 12.163969 25.67 12.11706 25.3367 12.09375 25 L 35.939453 25 C 35.895453 25.6456 35.833466 26.29025 35.628906 26.90625 C 35.417976 27.53905 36.367195 27.855456 36.578125 27.222656 C 36.868895 26.347056 37.021304 25.431 37.021484 24.5 C 37.021454 24.2239 36.797614 24 36.521484 24 L 36.019531 24 C 36.019181 23.99 36.019851 23.982609 36.019531 23.974609 C 36.385671 23.757409 36.755243 23.530503 36.970703 23.158203 C 37.198823 22.764103 37.223957 22.304616 37.216797 21.853516 C 37.610857 21.635216 37.994756 21.385387 38.222656 20.992188 L 38.224609 20.992188 C 38.732759 20.108788 38.564831 19.052519 37.957031 18.261719 C 38.465091 17.111819 38.121516 15.739856 37.009766 15.097656 L 37.007812 15.097656 C 36.935812 15.056656 36.854554 15.03325 36.771484 15.03125 C 36.544824 14.92885 36.307337 14.863331 36.060547 14.832031 C 35.986547 14.788031 35.902486 14.763719 35.816406 14.761719 C 34.978056 14.742719 34.222974 15.180975 33.746094 15.859375 C 32.772834 15.750475 31.794749 16.127594 31.292969 16.996094 C 31.186969 17.179594 31.127247 17.377731 31.091797 17.582031 C 30.940977 17.313631 30.728516 17.079128 30.503906 16.861328 C 30.627266 16.429428 30.722009 15.981069 30.605469 15.542969 C 30.343299 14.568069 29.488349 13.948394 28.511719 13.808594 C 28.189919 12.947794 27.441696 12.370794 26.535156 12.246094 C 26.389266 12.208594 26.23693 12.190953 26.078125 12.189453 z M 26.236328 13.142578 L 26.238281 13.144531 L 26.240234 13.144531 C 26.914194 13.154531 27.495595 13.601653 27.671875 14.251953 C 27.674875 14.262953 27.676734 14.27825 27.677734 14.28125 C 27.721534 14.52115 27.931971 14.694406 28.175781 14.691406 C 28.862701 14.681406 29.462215 15.137381 29.640625 15.800781 L 29.638672 15.800781 C 29.726172 16.129581 29.6993 16.477463 29.5625 16.789062 C 29.4687 17.003362 29.535999 17.254178 29.724609 17.392578 C 29.999649 17.594578 30.199019 17.885044 30.287109 18.214844 L 30.285156 18.214844 C 30.337856 18.412744 30.339341 18.619172 30.306641 18.826172 C 30.207141 18.926172 30.115379 19.033103 30.042969 19.158203 C 29.814789 19.552403 29.789665 20.011691 29.796875 20.462891 C 29.450985 20.655391 29.117889 20.878112 28.886719 21.195312 C 28.716809 20.876012 28.508676 20.580759 28.259766 20.318359 L 26.697266 14.488281 C 26.642666 14.269381 26.448226 14.114175 26.222656 14.109375 C 25.886096 14.099375 25.638379 14.422294 25.730469 14.746094 L 26.976562 19.400391 C 26.944363 19.385391 26.915412 19.365563 26.882812 19.351562 C 26.491003 17.947162 25.267873 16.9346 23.814453 16.8125 C 23.861053 16.3387 24.122701 15.905056 24.556641 15.660156 C 24.760421 15.544256 24.856249 15.302225 24.787109 15.078125 C 24.781109 15.059125 24.779297 15.048828 24.779297 15.048828 C 24.778297 15.048828 24.774437 15.039156 24.773438 15.035156 C 24.557758 14.229856 25.027281 13.413866 25.832031 13.197266 C 25.961301 13.163266 26.097648 13.142578 26.236328 13.142578 z M 35.792969 15.759766 C 36.044229 15.769766 36.290073 15.834738 36.507812 15.960938 L 36.509766 15.960938 L 36.511719 15.960938 C 37.231059 16.378237 37.472964 17.284559 37.058594 18.005859 C 37.054594 18.015859 37.051575 18.017437 37.046875 18.023438 C 36.904875 18.224038 36.929709 18.498122 37.105469 18.669922 C 37.596359 19.149622 37.698742 19.893081 37.357422 20.488281 C 37.186552 20.783081 36.921066 21.011366 36.603516 21.134766 C 36.385646 21.219766 36.255846 21.444481 36.291016 21.675781 C 36.342716 22.013681 36.276719 22.358597 36.105469 22.654297 C 35.934979 22.948897 35.670576 23.177081 35.353516 23.300781 C 35.135636 23.385781 35.005836 23.610497 35.041016 23.841797 C 35.049016 23.893797 35.047781 23.945747 35.050781 23.998047 L 32.445312 23.998047 L 36.210938 17.478516 C 36.408518 17.146716 36.171336 16.725656 35.785156 16.722656 C 35.602306 16.722656 35.43304 16.818616 35.34375 16.978516 L 31.291016 23.998047 L 30.060547 23.998047 C 30.059547 23.864947 30.005346 23.737631 29.910156 23.644531 C 29.419276 23.164031 29.317236 22.417466 29.660156 21.822266 C 29.830716 21.528966 30.095999 21.301034 30.412109 21.177734 C 30.629979 21.092734 30.759779 20.867919 30.724609 20.636719 C 30.672909 20.299019 30.737003 19.953903 30.908203 19.658203 C 31.078703 19.363603 31.345129 19.135419 31.662109 19.011719 C 31.879989 18.926719 32.009789 18.701903 31.974609 18.470703 C 31.923209 18.133403 31.987403 17.789441 32.158203 17.494141 L 32.160156 17.494141 C 32.503896 16.899141 33.199578 16.614028 33.861328 16.798828 C 34.092048 16.863828 34.336169 16.755816 34.443359 16.541016 C 34.449359 16.530016 34.453684 16.519766 34.458984 16.509766 C 34.733584 16.033866 35.243449 15.747066 35.792969 15.759766 z M 23.527344 17.787109 C 24.446284 17.787109 25.257616 18.285475 25.691406 19.046875 C 25.524146 19.026875 25.35995 18.998047 25.1875 18.998047 C 24.91137 18.998147 24.68753 19.221947 24.6875 19.498047 L 24.6875 23.0625 C 24.6042 22.9424 24.512703 22.827756 24.408203 22.722656 C 24.085623 22.400056 23.647764 22.257638 23.208984 22.148438 C 23.100004 21.713538 22.959805 21.277831 22.640625 20.957031 C 22.318465 20.634631 21.881479 20.492213 21.443359 20.382812 C 21.372459 20.100312 21.282621 19.821113 21.144531 19.570312 C 21.460211 18.520413 22.415794 17.787809 23.527344 17.787109 z M 16.607422 19.103516 L 16.609375 19.103516 C 17.012775 19.093516 17.399527 19.256516 17.685547 19.541016 C 17.692547 19.551016 17.697737 19.553359 17.710938 19.568359 C 17.869097 19.748659 18.132974 19.791322 18.339844 19.669922 C 18.930844 19.319822 19.677682 19.413338 20.164062 19.898438 C 20.403872 20.139238 20.554507 20.453116 20.591797 20.791016 C 20.617097 21.024616 20.801566 21.209075 21.035156 21.234375 C 21.374286 21.271375 21.690191 21.423063 21.931641 21.664062 C 22.171651 21.905262 22.322385 22.220294 22.359375 22.558594 C 22.384675 22.792194 22.569144 22.976653 22.802734 23.001953 C 23.141854 23.038953 23.457779 23.190741 23.699219 23.431641 C 23.859839 23.593041 23.975408 23.787247 24.048828 23.998047 L 20.728516 23.998047 L 16.955078 20.224609 C 16.860578 20.127609 16.730893 20.073719 16.595703 20.074219 C 16.148623 20.074219 15.928527 20.618941 16.248047 20.931641 L 19.314453 23.998047 L 15.820312 23.998047 C 15.440043 23.516147 15.372326 22.857859 15.691406 22.318359 C 15.811176 22.117359 15.775469 21.860019 15.605469 21.699219 C 15.593469 21.688219 15.580459 21.676063 15.568359 21.664062 C 14.978549 21.074163 14.978549 20.132869 15.568359 19.542969 C 15.843169 19.267969 16.214892 19.111616 16.607422 19.103516 z M 25.6875 20.195312 C 27.17395 20.451012 28.355469 21.532047 28.355469 22.998047 C 28.355479 23.349447 28.268561 23.679547 28.144531 23.998047 L 25.6875 23.998047 L 25.6875 20.195312 z M 14.240234 21.023438 C 14.324734 21.419337 14.496472 21.804219 14.763672 22.136719 C 14.511922 22.742119 14.47967 23.406547 14.6875 23.998047 L 12.080078 23.998047 C 12.045778 23.832347 12.021884 23.665694 12.021484 23.496094 C 12.021484 22.205794 12.989094 21.163638 14.240234 21.023438 z M 35.220703 28.380859 C 35.056023 28.392859 34.907659 28.484553 34.824219 28.626953 C 34.601039 28.992153 34.349799 29.3465 34.068359 29.6875 C 33.574529 30.206 34.422761 30.905766 34.837891 30.322266 C 35.148451 29.945866 35.429264 29.554938 35.677734 29.148438 C 35.885004 28.821537 35.658334 28.393259 35.271484 28.380859 C 35.254584 28.380059 35.237603 28.380059 35.220703 28.380859 z M 17.521484 32.998047 L 30.521484 32.998047 C 30.807114 32.998047 31.021484 33.212347 31.021484 33.498047 C 31.021484 33.783547 30.807114 33.998047 30.521484 33.998047 L 17.521484 33.998047 C 17.235854 33.998047 17.021484 33.783547 17.021484 33.498047 C 17.021484 33.212347 17.235854 32.998047 17.521484 32.998047 z M 9.4628906 33.998047 C 8.7962206 34.032047 8.8469819 35.031947 9.5136719 34.998047 L 10.470703 34.998047 C 11.146453 35.010047 11.150339 33.991547 10.474609 33.998047 L 10.470703 33.998047 L 9.5136719 33.998047 C 9.4967719 33.997147 9.4797906 33.997147 9.4628906 33.998047 z " baseline-shift="baseline" clip-rule="nonzero" color="#000" color-interpolation="sRGB" color-interpolation-filters="linearRGB" color-rendering="auto" direction="ltr" display="inline" enable-background="accumulate" font-family="sans-serif" font-size="medium" font-stretch="normal" font-style="normal" font-variant="normal" font-weight="400" image-rendering="auto" letter-spacing="normal" opacity="1" overflow="visible" shape-rendering="auto" text-anchor="start" text-decoration="none" text-rendering="auto" transform="translate(0 1004.362)" visibility="visible" word-spacing="normal" writing-mode="lr-tb"/></g></svg>