<svg xmlns="http://www.w3.org/2000/svg" width="32" height="32" version="1"><path fill="#f37a5d" d="M32 16c0 8.836-7.164 16-16 16S0 24.836 0 16 7.164 0 16 0s16 7.164 16 16z"/><path d="M17.34 31.865c.632-.053 1.276-.065 1.885-.19a15.887 15.887 0 0 0 5.72-2.407 16.083 16.083 0 0 0 2.367-1.956 15.953 15.953 0 0 0 4.363-8.088c.065-.311.053-.646.098-.964l-9.388-9.387-.033-.035c-.06-.06-.14-.097-.213-.14-.043-.026-.075-.063-.121-.083a1.138 1.138 0 0 0-.45-.09c.075.076 0 .075-.076.075a.682.682 0 0 0-.525.226.788.788 0 0 0-.375.676c-.075.826-.3 1.35-.676 1.727a3.002 3.002 0 0 1-1.428.828c-.188.075-.376.13-.564.177-.188.047-.375.084-.563.121h-.15c-.15.076-.301.077-.451.077a3.9 3.9 0 0 0-.998.353l-.43-.43h-.6c-.525.076-.827.15-.902.15-1.953.527-3.907 2.18-4.133 4.134-.075.526-.075 1.202 0 1.879.075.676.226 1.275.602 1.726l1.428 1.428H8.422c-.15 0-.302.225-.227.375.075.15.076.451.15.752.044.086.103.164.173.238.007.008.011.018.02.026l8.802 8.802z" opacity=".25"/><path fill="#fff" d="M21.493 8.6a.682.682 0 0 0-.526.225.789.789 0 0 0-.375.677c-.076.826-.3 1.352-.677 1.727a2.998 2.998 0 0 1-1.427.827c-.376.15-.751.225-1.127.3h-.15c-.15.075-.3.075-.45.075-1.128.226-1.88.827-2.255 1.428-.375.676-.375 1.578.075 2.404.076.15.076.376-.075.45-.15.076-.375.076-.45-.074-.601-.977-.677-2.104-.15-3.006.3-.525.75-.976 1.427-1.277h-.601c-.526.075-.827.15-.902.15-1.953.526-3.906 2.18-4.132 4.133-.075.525-.075 1.202 0 1.878.075.676.226 1.277.601 1.728.376.375.902.6 1.428.676.525.075 1.126.075 1.577.075h6.912c.676-.075 1.277-.45 1.728-1.052.45-.6.676-1.427.676-2.329 0-.901-.225-1.803-.676-2.404a1.754 1.754 0 0 0-.902-.751c-.15.526-.3 1.127-.375 1.502-.075.451-.15.677-.15.752a2.911 2.911 0 0 1-2.855 2.254c-.601 0-1.202-.226-1.728-.602-.226-.225.15-.676.375-.525.376.3.827.45 1.353.45a2.115 2.115 0 0 0 2.103-1.803s.075-.3.15-.75c.076-.452.226-.978.451-1.579v-.15c.226-.526.451-1.127.827-1.502.3-.376.6-.526.976-.526.15.075.376.075.601.075.226 0 .526-.075.676-.226.451-.375.526-1.126.076-1.577a1.386 1.386 0 0 0-.902-.376c0-.075.075-.075.075-.15 0-.676-.45-1.202-1.127-1.202.075.075 0 .075-.075.075zM8.421 21.672c-.15 0-.3.225-.225.376.075.15.075.45.15.751.15.3.45.526.977.676h13.372c.376-.075.676-.3.827-.6.15-.301.15-.602.15-.902 0-.15-.15-.3-.3-.3H8.42z"/></svg>