<svg xmlns="http://www.w3.org/2000/svg" width="32" height="32" version="1"><g opacity=".98"><path fill="#f37a5d" d="M32 16c0 8.836-7.164 16-16 16S0 24.836 0 16 7.164 0 16 0s16 7.164 16 16z"/><path fill="#fff" d="M12.337 8.248c-.166 0-.333.167-.333.417 0 .167.167.333.333.333.25 0 .5.25.5.5s-.25.5-.5.5h-.083c-.667 0-1.167.5-1.167 1.168 0 .666.5 1.167 1.167 1.167.25 0 .5.25.5.5s-.25.5-.5.5a.359.359 0 0 0-.333.333c0 .167.166.334.333.334.667 0 1.167-.5 1.167-1.167s-.5-1.167-1.167-1.167h-.083c-.25 0-.5-.25-.5-.5s.166-.5.416-.5h.084c.666 0 1.167-.5 1.167-1.167s-.334-1.25-1-1.25zm3.084 0c-.166 0-.333.167-.25.417 0 .167.167.333.334.333.25 0 .5.25.5.5s-.25.5-.5.5h-.084c-.666 0-1.167.5-1.167 1.168 0 .666.5 1.167 1.167 1.167.25 0 .5.25.5.5s-.25.5-.5.5a.359.359 0 0 0-.333.333c0 .167.167.334.333.334.667 0 1.167-.5 1.167-1.167s-.5-1.167-1.167-1.167h-.083c-.25 0-.5-.25-.5-.5s.167-.5.5-.5h.083c.667 0 1.167-.5 1.167-1.167s-.416-1.25-1.167-1.25c.084 0 0 0 0 0zm3.334 0c-.166 0-.333.167-.25.417 0 .167.167.333.334.333.25 0 .5.25.5.5s-.25.5-.5.5h-.084c-.666 0-1.166.5-1.166 1.168 0 .666.5 1.167 1.166 1.167.25 0 .5.25.5.5s-.25.5-.5.5a.359.359 0 0 0-.333.333c0 .167.167.334.333.334.667 0 1.167-.5 1.167-1.167s-.5-1.167-1.167-1.167h-.083c-.25 0-.5-.25-.5-.5s.25-.5.5-.5h.167c.667 0 1.167-.5 1.167-1.167s-.5-1.25-1.25-1.25c.083 0 .083 0 0 0zm5.502 1.584c-.167 0-.334 0-.417.083-.667.167-1.5.75-2.084 1.917-.667 1.5-1.334 2.084-1.834 2.418-.25.083-.416.166-.666.25-.417.083-.75.083-1.25.083H8.002c-.167.083-.25.167-.25.333V16.417c.667 2.334 2.334 4.334 4.584 5.25V23.419c0 .167.167.334.334.334h6.001a.359.359 0 0 0 .334-.334v-1.75c2.083-.917 3.834-2.834 4.5-5.251 0-.084.084-.084.084-.167v-1.334a.359.359 0 0 0-.334-.333h-2.083c.583-.333 1-.75 1.333-1.167.834-1 1.334-1.917 3.168-2.084h1c.167.084.333 0 .417-.083a.4.4 0 0 0-.167-.5c-.5-.334-1.584-1.084-2.667-.917zM8.503 15.25H23.09v.667H8.503v-.667z"/></g></svg>